<svg width="301" height="301" viewBox="0 0 301 301" fill="none" xmlns="http://www.w3.org/2000/svg">
<mask id="path-1-inside-1_1_54" fill="white">
<path d="M150.133 0.132812V150.133L300.132 150.133V300.133H0.13208L0.13208 0.132812L150.133 0.132812Z"/>
</mask>
<path d="M150.133 0.132812V150.133L300.132 150.133V300.133H0.13208L0.13208 0.132812L150.133 0.132812Z" fill="#E975E9" fill-opacity="0.7"/>
<path d="M150.133 0.132812V150.133L300.132 150.133V300.133H0.13208L0.13208 0.132812L150.133 0.132812Z" fill="url(#paint0_linear_1_54)" fill-opacity="0.5"/>
<path d="M150.133 0.132812L160.133 0.132812V-9.86719H150.133V0.132812ZM150.133 150.133H140.133V160.133H150.133V150.133ZM300.132 150.133H310.132V140.133H300.132V150.133ZM300.132 300.133V310.133H310.132V300.133H300.132ZM0.13208 300.133H-9.86792L-9.86792 310.133H0.13208L0.13208 300.133ZM0.13208 0.132812L0.13208 -9.86719H-9.86792V0.132813L0.13208 0.132812ZM150.133 0.132812L140.133 0.132812V150.133H150.133H160.133V0.132812L150.133 0.132812ZM150.133 150.133V160.133L300.132 160.133V150.133V140.133L150.133 140.133V150.133ZM300.132 150.133H290.132V300.133H300.132H310.132V150.133H300.132ZM300.132 300.133V290.133H0.13208L0.13208 300.133L0.13208 310.133H300.132V300.133ZM0.13208 300.133H10.1321L10.1321 0.132812L0.13208 0.132812L-9.86792 0.132813L-9.86792 300.133H0.13208ZM0.13208 0.132812L0.13208 10.1328L150.133 10.1328V0.132812V-9.86719L0.13208 -9.86719L0.13208 0.132812Z" fill="url(#paint1_linear_1_54)" mask="url(#path-1-inside-1_1_54)"/>
<defs>
<linearGradient id="paint0_linear_1_54" x1="220.843" y1="79.2355" x2="0.225279" y2="299.853" gradientUnits="userSpaceOnUse">
<stop stop-opacity="0"/>
<stop offset="1" stop-color="#001EFF"/>
</linearGradient>
<linearGradient id="paint1_linear_1_54" x1="225.793" y1="74.2851" x2="-8.61282" y2="308.691" gradientUnits="userSpaceOnUse">
<stop stop-color="#2BCEEB"/>
<stop offset="1" stop-color="#3F04AF"/>
</linearGradient>
</defs>
</svg>
